<svg xmlns="http://www.w3.org/2000/svg" width="760" height="140" viewBox="0 0 760 140" ><defs>
  <linearGradient id="pf" x1="0" y1="14" x2="0" y2="98" gradientUnits="userSpaceOnUse">
    <stop offset="0" stop-color="#1f0816"/><stop offset="1" stop-color="#07030a"/></linearGradient>
  <linearGradient id="wingfill" x1="0" y1="-40" x2="0" y2="14" gradientUnits="userSpaceOnUse">
    <stop offset="0" stop-color="#2a0b1d"/><stop offset="1" stop-color="#07030a"/></linearGradient>
  <linearGradient id="tt" x1="0" y1="30" x2="0" y2="66" gradientUnits="userSpaceOnUse">
    <stop offset="0" stop-color="#fff0f7"/><stop offset=".5" stop-color="#ff8cc6"/><stop offset="1" stop-color="#ff4fa3"/></linearGradient>
  <linearGradient id="sh" x1="0" y1="0" x2="90" y2="0" gradientUnits="userSpaceOnUse">
    <stop offset="0" stop-color="#fff" stop-opacity="0"/><stop offset=".5" stop-color="#fff" stop-opacity=".9"/><stop offset="1" stop-color="#fff" stop-opacity="0"/>
    <animateTransform attributeName="gradientTransform" type="translate" values="30 0;30 0;650 0" keyTimes="0;0.45;1" dur="5.5s" begin="-1.8s" repeatCount="indefinite"/>
  </linearGradient>
  <filter id="g" x="-10%" y="-60%" width="120%" height="220%"><feGaussianBlur stdDeviation="5"/></filter>
</defs><g transform="translate(0 16)"><g transform="translate(154 50.0) scale(-1 1)"><g><animateTransform attributeName="transform" type="rotate" values="0;-7;0;4;0" dur="3.2s" begin="-2.8s" repeatCount="indefinite"/><path d="M0 -18 C30 -44 80 -52 128 -30 C120 -20 118 -10 122 2 C108 -4 96 -2 88 8 C80 -2 66 -2 58 10 C52 0 40 -2 30 8 C22 -2 10 0 0 14 Z" fill="url(#wingfill)" stroke="#ff4fa3" stroke-width="1.4" stroke-linejoin="round"/><path d="M0 -10 L128 -30 M4 -4 L88 8 M4 0 L58 10 M4 4 L30 8" fill="none" stroke="#a3195b" stroke-width="0.9" opacity="0.8"/></g></g><g transform="translate(606 50.0) scale(1 1)"><g><animateTransform attributeName="transform" type="rotate" values="0;-7;0;4;0" dur="3.2s" begin="-2.4s" repeatCount="indefinite"/><path d="M0 -18 C30 -44 80 -52 128 -30 C120 -20 118 -10 122 2 C108 -4 96 -2 88 8 C80 -2 66 -2 58 10 C52 0 40 -2 30 8 C22 -2 10 0 0 14 Z" fill="url(#wingfill)" stroke="#ff4fa3" stroke-width="1.4" stroke-linejoin="round"/><path d="M0 -10 L128 -30 M4 -4 L88 8 M4 0 L58 10 M4 4 L30 8" fill="none" stroke="#a3195b" stroke-width="0.9" opacity="0.8"/></g></g><path d="M164 14 H596 A14 14 0 0 0 610 28 V84 A14 14 0 0 0 596 98 H164 A14 14 0 0 0 150 84 V28 A14 14 0 0 0 164 14 Z" fill="url(#pf)" stroke="#ff4fa3" stroke-width="2"/><path d="M167 20 H593 A11 11 0 0 0 604 31 V81 A11 11 0 0 0 593 92 H167 A11 11 0 0 0 156 81 V31 A11 11 0 0 0 167 20 Z" fill="none" stroke="#5c1238" stroke-width="1"/><circle cx="153" cy="17" r="3" fill="#ff1f8e"/><circle cx="607" cy="17" r="3" fill="#ff1f8e"/><circle cx="153" cy="95" r="3" fill="#ff1f8e"/><circle cx="607" cy="95" r="3" fill="#ff1f8e"/><path d="M380 18.5 C373.75 14.25 374.75 9 377.5 9.25 C379 9.25 379.9 10.5 380 11.5 C380.1 10.5 381 9.25 382.5 9.25 C385.25 9 386.25 14.25 380 18.5 Z" fill="#ff1f8e" stroke="#07030a" stroke-width="1.5"/><path d="M375.0 98 L380.0 93 L385.0 98 L380.0 103 Z" fill="#ff4fa3" stroke="#07030a" stroke-width="1.2"/><path fill="#ff1f8e" filter="url(#g)" opacity="0.5"  d="M 311.43 48.5 Q 314.06 48.62 315.78 47.14 Q 316.13 46.8 316.4 47.01 Q 316.66 47.21 316.41 47.49 Q 314.22 49.62 311.82 49.52 Q 308.77 49.46 306.84 47.46 Q 304.9 45.46 304.88 42.18 Q 304.71 38.8 307.48 36.26 Q 310.25 33.72 314.28 33.72 Q 318.73 33.72 321.52 36.69 Q 321.8 36.94 322.01 36.65 Q 323.93 33.64 325.17 33.59 Q 326.41 33.54 328.48 36.39 Q 328.69 36.69 328.96 36.45 Q 329.36 36.06 329.57 35.87 Q 332.4 33.29 336.28 33.65 Q 340.16 34.01 341.91 37.45 Q 342.44 38.54 342.72 39.55 Q 343.01 40.55 343.98 41.14 Q 344.53 41.45 344.53 41.73 Q 344.53 42 344.18 42.08 Q 342.87 42.37 341.62 43.19 Q 340.29 44.6 340.78 45.84 Q 341.27 47.08 343.34 48.54 Q 345.98 50.48 345.69 53.25 Q 345.41 56.02 342.48 58.84 Q 338.77 62.43 335.55 62.45 Q 332.32 62.47 329.75 59.77 Q 328.46 58.45 326.91 59.5 Q 322.7 62.8 319.91 62.24 Q 317.13 61.69 315.27 59.11 Q 312.27 54.97 308.83 57.1 Q 308.38 57.41 308.15 57.15 Q 307.93 56.88 308.26 56.59 Q 311 54.21 312.96 53.62 Q 314.92 53.04 316.45 53.58 Q 316.68 53.66 316.8 53.5 Q 318.3 51.8 319.21 49.64 Q 320.12 47.47 320 45.07 Q 319.86 42.55 317.75 39.94 Q 315.64 37.33 312.11 37.62 Q 310 37.82 308.23 39.23 Q 306.46 40.63 306.35 42.92 Q 306.33 45.2 307.68 46.8 Q 309.02 48.41 311.43 48.5 Z M 339.77 43.23 Q 338.52 42.31 337.9 41.14 Q 337.29 39.97 336.7 38.76 Q 335.45 36.28 333.5 35.59 Q 331.54 34.91 330.25 36.32 Q 328.95 37.74 328.99 39.57 Q 329.04 41.39 330.98 44.03 Q 333.14 47.08 333.36 49.55 Q 333.57 52.02 331.76 54.6 Q 331.62 54.77 331.66 54.91 Q 331.7 55.05 331.95 55.09 Q 332.79 55.3 333.93 56.28 Q 336.93 59.58 338.82 59.71 Q 340.7 59.83 341.82 58.43 Q 342.64 57.39 342.47 56 Q 342.3 54.62 339.14 52.06 Q 334.8 48.62 337.95 45.42 Q 338.91 44.46 339.79 43.76 Q 339.9 43.64 339.9 43.49 Q 339.9 43.35 339.77 43.23 Z M 322.48 37.92 Q 324.39 40.98 323.61 45.03 Q 323.14 47.45 321.31 49.7 Q 319.47 51.94 317.54 53.68 Q 317.29 53.97 317.58 54.19 Q 318.48 54.79 319.65 56.08 Q 321.58 58.31 323.45 59.01 Q 325.31 59.71 327.83 57.55 Q 330.23 55.5 329.63 53.02 Q 329.02 50.54 327.23 47.94 Q 325.21 45.03 325.59 42.47 Q 325.96 39.91 327.85 37.62 Q 328.03 37.45 327.85 37.21 Q 326.33 35.55 325.11 35.61 Q 323.89 35.67 322.48 37.57 Q 322.36 37.74 322.48 37.92 Z M 348.11 36.32 Q 347.85 35.95 348.14 35.74 Q 348.44 35.54 348.73 35.89 Q 349.59 36.96 350.12 38.19 Q 350.18 38.39 350.39 38.39 Q 350.57 38.43 350.7 38.23 Q 351.84 36.2 354.27 35.1 Q 356.7 33.99 359.2 34.21 Q 359.71 34.23 359.71 34.62 Q 359.71 35.01 359.22 34.97 Q 357.17 34.83 355.64 35.91 Q 354.12 36.98 354.14 40.05 L 354.18 44.42 Q 354.18 44.62 354.34 44.71 Q 354.49 44.79 354.65 44.7 Q 355.72 44.11 356.81 43.41 Q 357.89 42.7 358.81 41.82 Q 359.53 41.1 359.63 42.08 Q 359.71 42.8 360.23 43.37 Q 360.76 43.93 361.21 44.48 Q 363.85 47.84 363.93 51.75 Q 364.06 57.49 359.88 61.89 Q 355.7 66.3 352.29 68.62 Q 351.82 68.95 351.59 68.73 Q 351.37 68.5 351.72 68.21 Q 354.47 65.77 357.28 62.88 Q 360.08 59.99 359.82 53.72 Q 359.71 51.26 359.07 49.08 Q 358.44 46.9 356.76 45.46 Q 355.9 44.73 354.38 45.48 Q 354.2 45.54 354.2 45.77 L 354.28 57.57 Q 354.28 59.15 355.55 58.88 Q 355.82 58.8 356.04 58.58 Q 356.25 58.37 356.51 58.2 Q 356.78 58.04 356.99 58.23 Q 357.21 58.43 356.99 58.64 Q 356.04 59.7 355.06 60.59 Q 354.08 61.49 353.55 62.57 Q 353.32 63.04 352.85 62.57 Q 351.11 60.69 349.06 59.75 Q 348.4 59.4 348.96 59.11 Q 350.21 58.68 350.2 56.53 L 350.16 43.48 Q 350.14 40.85 349.56 39.17 Q 348.98 37.49 348.11 36.32 Z M 367.99 57.41 367.85 46.71 Q 367.85 46.34 367.73 46.1 Q 367.27 45.34 366.93 45.73 L 366.15 46.53 Q 365.84 46.88 365.56 46.61 Q 365.27 46.34 365.64 45.85 Q 366.5 44.77 367.19 43.7 Q 367.87 42.62 368.59 41.57 Q 368.91 41.2 369.32 41.59 Q 370.14 42.59 370.92 43.34 Q 371.7 44.09 373.14 44.93 Q 373.55 45.09 373.51 45.3 Q 373.46 45.52 373.24 45.54 Q 372.73 45.73 372.34 46.21 Q 371.95 46.69 371.95 47.8 V 56.06 Q 371.95 58.05 372.7 58.5 Q 373.55 59.01 374.1 58.07 Q 374.3 57.7 374.58 57.91 Q 374.86 58.11 374.57 58.58 Q 373.98 59.5 373.48 60.43 Q 372.97 61.36 372.44 62.27 Q 372.07 62.82 371.52 62.51 Q 369.77 61.67 368.88 60.46 Q 367.99 59.25 367.99 57.41 Z M 370.82 34.23 Q 372.99 34.23 372.79 36.32 Q 372.68 37.37 371.47 38.44 Q 370.27 39.5 369.57 39.48 Q 368.87 39.48 368.5 38.37 Q 368.12 37.25 368.2 36.32 Q 368.26 35.42 369.07 34.82 Q 369.88 34.23 370.82 34.23 Z M 383.26 37.8 Q 386 37.08 388.28 38.13 Q 389.82 38.88 390.68 40.18 Q 391.54 41.49 391.37 43.11 Q 391.19 44.73 390.3 45.52 Q 389.41 46.3 388.85 46.73 Q 388.28 47.16 387.77 47.62 Q 386.78 48.56 387.62 49.3 Q 390.25 51.59 390.65 53.15 Q 391.05 54.71 390.1 55.91 Q 388.77 57.55 387.28 59.02 Q 385.78 60.5 384.32 62 Q 383.59 62.7 383.44 61.92 Q 383.18 60.85 381.14 60.04 Q 379.1 59.23 376.84 58.48 Q 376.43 58.33 376.78 57.9 Q 377.3 57.35 377.87 56.8 Q 378.44 56.26 379 55.73 Q 379.88 54.91 379.6 54.28 Q 379.32 53.64 378.55 52.84 Q 376.64 50.85 376.71 49.11 Q 376.78 47.37 377.97 46.04 Q 379.08 44.81 380.48 43.79 Q 381.88 42.76 383.12 41.49 Q 383.28 41.36 383.54 41.59 Q 386.15 43.91 387.9 43.93 Q 389.65 43.95 390.18 42.9 Q 390.7 41.82 390.08 40.66 Q 389.45 39.5 388.05 38.74 Q 385.92 37.68 383.38 38.54 Q 382.87 38.74 382.77 38.33 Q 382.68 37.92 383.26 37.8 Z M 380.14 55.34 Q 379.94 55.67 380.25 55.85 Q 381.64 56.49 383.03 57.12 Q 384.41 57.74 385.82 58.33 Q 386.8 58.76 387.77 57.21 Q 388.98 55.28 384.57 52.14 Q 383.89 51.73 382.89 52.53 Z M 382.83 51.28 Q 383.07 51.45 383.26 51.26 L 386.89 47.7 Q 387.07 47.51 387 47.34 Q 386.93 47.18 386.7 47.16 Q 385.59 47.04 384.24 46.3 Q 382.07 45.07 381.41 44.64 Q 380.74 44.21 379.71 45.42 Q 378.4 46.96 379.7 48.37 Q 381 49.77 382.83 51.28 Z M 395.78 38.88 Q 394.92 39.77 395.02 40.62 Q 395.12 41.47 396.43 41.86 Q 398.11 42.37 398.65 43.18 Q 399.2 43.99 399.32 45.07 Q 399.34 45.26 399.48 45.32 Q 399.63 45.38 399.79 45.32 Q 402.27 43.88 404.88 41.86 Q 405.04 41.75 405.2 41.82 Q 405.35 41.9 405.39 42.06 Q 405.59 43.11 406.18 43.86 Q 406.78 44.6 407.42 45.32 Q 409.82 48.04 409.55 51.39 Q 409.28 55.52 406.68 57.7 Q 403.81 60.12 402.27 62.25 Q 402.07 62.51 401.82 62.33 Q 401.33 62.04 400.84 61.77 Q 400.35 61.49 399.86 61.2 Q 399.71 61.12 399.56 61.19 Q 399.41 61.26 399.41 61.45 Q 399.18 63.56 398.82 65.59 Q 398.46 67.62 398.05 69.68 Q 397.97 69.95 397.71 69.94 Q 397.46 69.93 397.4 69.68 Q 396.99 67.31 396.63 64.63 Q 396.27 61.94 396.07 59.46 Q 396.04 59.25 395.86 59.19 Q 393.89 58.46 393.07 59.36 Q 392.89 59.54 392.71 59.47 Q 392.52 59.4 392.52 59.13 Q 392.54 55.95 395.57 55.75 Q 395.86 55.75 395.86 55.44 V 54.83 Q 395.86 51.92 395.77 50.65 Q 395.68 49.38 395.62 47.57 Q 395.59 46.69 395.18 46.22 Q 394.77 45.75 394.36 45.4 Q 392.58 43.93 392.88 42.17 Q 393.18 40.4 395.2 38.56 Q 395.55 38.19 395.8 38.4 Q 396.05 38.6 395.78 38.88 Z M 399.65 56.57 Q 399.65 56.8 399.82 56.86 Q 400.82 57.37 401.77 57.94 Q 402.71 58.5 403.69 59.05 Q 403.98 59.19 404.14 58.93 Q 404.73 58.02 405.23 56.67 Q 405.74 55.32 405.78 53.31 Q 405.82 51.22 404.97 49.57 Q 404.12 47.92 403.12 46.41 Q 402.09 44.97 399.55 46.2 Q 399.36 46.3 399.36 46.49 Q 399.38 46.73 399.38 47.2 L 399.63 54.93 Q 399.65 55.5 399.65 56.57 Z M 417.05 62.55 Q 417.01 62.08 416.55 61.84 Q 416.09 61.61 415.78 61.38 Q 413.54 59.85 412.61 57.65 Q 411.68 55.46 411.56 53 Q 411.33 47.43 414.57 44.52 Q 415.72 43.48 417.23 42.83 Q 418.73 42.18 420.31 41.77 Q 420.8 41.67 421.04 42.25 L 423.85 48.86 Q 424.04 49.38 423.71 49.52 H 423.67 L 415.66 52.62 Q 415.43 52.74 415.47 53 Q 416.43 57.33 418.67 58.55 Q 420.92 59.77 423.14 58.91 Q 423.54 58.74 423.64 58.97 Q 423.75 59.21 423.5 59.32 Q 421.91 60.12 420.48 60.96 Q 419.04 61.8 417.91 62.72 Q 417.73 62.84 417.39 62.8 Q 417.05 62.76 417.05 62.55 Z M 415.23 51.51 Q 415.25 51.67 415.37 51.76 Q 415.49 51.84 415.66 51.77 L 419.82 50.2 Q 420.12 50.09 420 49.79 L 417.62 43.95 Q 417.44 43.52 416.91 43.84 Q 415.78 44.5 415.37 46.86 Q 414.96 49.23 415.23 51.51 Z M 432.54 47.35 432.52 56.82 Q 432.52 57.45 432.83 57.62 L 434.24 58.45 Q 434.69 58.72 435.61 57.49 Q 435.8 57.23 436.09 57.38 Q 436.39 57.53 436.09 57.88 Q 434.04 60.16 432.95 62.37 Q 432.62 62.82 432.23 62.37 Q 431.13 61.1 430.19 60.44 Q 429.24 59.77 427.4 59.34 Q 427.05 59.25 427.05 59.03 Q 427.05 58.82 427.3 58.72 Q 428.61 58.5 428.59 56.47 V 48.21 Q 428.59 46.22 427.85 45.77 Q 426.99 45.2 426.45 46.18 Q 426.23 46.59 425.96 46.38 Q 425.68 46.16 425.98 45.69 Q 426.54 44.79 427.06 43.86 Q 427.58 42.92 428.12 41.98 Q 428.46 41.39 429 41.77 Q 431.88 43.15 432.44 45.28 Q 432.5 45.48 432.68 45.53 Q 432.85 45.57 432.99 45.4 L 436 41.94 Q 436.11 41.82 436.27 41.83 Q 436.43 41.84 436.52 42 L 438.57 45.93 Q 438.65 46.1 438.54 46.26 L 436.19 49.07 Q 436.05 49.21 435.89 49.19 Q 435.72 49.17 435.66 49.01 L 434.08 46.08 Q 434 45.96 433.84 45.94 Q 433.67 45.91 433.54 46.04 L 432.62 47.16 Q 432.54 47.23 432.54 47.35 Z M 446.97 37.8 Q 449.71 37.08 451.99 38.13 Q 453.54 38.88 454.39 40.18 Q 455.25 41.49 455.08 43.11 Q 454.9 44.73 454.01 45.52 Q 453.12 46.3 452.56 46.73 Q 451.99 47.16 451.48 47.62 Q 450.49 48.56 451.33 49.3 Q 453.96 51.59 454.37 53.15 Q 454.77 54.71 453.81 55.91 Q 452.48 57.55 450.99 59.02 Q 449.49 60.5 448.03 62 Q 447.3 62.7 447.15 61.92 Q 446.89 60.85 444.85 60.04 Q 442.81 59.23 440.55 58.48 Q 440.14 58.33 440.49 57.9 Q 441.02 57.35 441.58 56.8 Q 442.15 56.26 442.71 55.73 Q 443.59 54.91 443.31 54.28 Q 443.03 53.64 442.27 52.84 Q 440.35 50.85 440.42 49.11 Q 440.49 47.37 441.68 46.04 Q 442.79 44.81 444.19 43.79 Q 445.59 42.76 446.84 41.49 Q 446.99 41.36 447.25 41.59 Q 449.86 43.91 451.61 43.93 Q 453.36 43.95 453.89 42.9 Q 454.41 41.82 453.79 40.66 Q 453.16 39.5 451.76 38.74 Q 449.63 37.68 447.09 38.54 Q 446.58 38.74 446.48 38.33 Q 446.39 37.92 446.97 37.8 Z M 443.85 55.34 Q 443.65 55.67 443.96 55.85 Q 445.35 56.49 446.74 57.12 Q 448.12 57.74 449.53 58.33 Q 450.51 58.76 451.48 57.21 Q 452.7 55.28 448.28 52.14 Q 447.6 51.73 446.6 52.53 Z M 446.54 51.28 Q 446.78 51.45 446.97 51.26 L 450.61 47.7 Q 450.78 47.51 450.71 47.34 Q 450.64 47.18 450.41 47.16 Q 449.3 47.04 447.95 46.3 Q 445.78 45.07 445.12 44.64 Q 444.45 44.21 443.42 45.42 Q 442.11 46.96 443.41 48.37 Q 444.71 49.77 446.54 51.28 Z"/><path fill="url(#tt)"  d="M 311.43 48.5 Q 314.06 48.62 315.78 47.14 Q 316.13 46.8 316.4 47.01 Q 316.66 47.21 316.41 47.49 Q 314.22 49.62 311.82 49.52 Q 308.77 49.46 306.84 47.46 Q 304.9 45.46 304.88 42.18 Q 304.71 38.8 307.48 36.26 Q 310.25 33.72 314.28 33.72 Q 318.73 33.72 321.52 36.69 Q 321.8 36.94 322.01 36.65 Q 323.93 33.64 325.17 33.59 Q 326.41 33.54 328.48 36.39 Q 328.69 36.69 328.96 36.45 Q 329.36 36.06 329.57 35.87 Q 332.4 33.29 336.28 33.65 Q 340.16 34.01 341.91 37.45 Q 342.44 38.54 342.72 39.55 Q 343.01 40.55 343.98 41.14 Q 344.53 41.45 344.53 41.73 Q 344.53 42 344.18 42.08 Q 342.87 42.37 341.62 43.19 Q 340.29 44.6 340.78 45.84 Q 341.27 47.08 343.34 48.54 Q 345.98 50.48 345.69 53.25 Q 345.41 56.02 342.48 58.84 Q 338.77 62.43 335.55 62.45 Q 332.32 62.47 329.75 59.77 Q 328.46 58.45 326.91 59.5 Q 322.7 62.8 319.91 62.24 Q 317.13 61.69 315.27 59.11 Q 312.27 54.97 308.83 57.1 Q 308.38 57.41 308.15 57.15 Q 307.93 56.88 308.26 56.59 Q 311 54.21 312.96 53.62 Q 314.92 53.04 316.45 53.58 Q 316.68 53.66 316.8 53.5 Q 318.3 51.8 319.21 49.64 Q 320.12 47.47 320 45.07 Q 319.86 42.55 317.75 39.94 Q 315.64 37.33 312.11 37.62 Q 310 37.82 308.23 39.23 Q 306.46 40.63 306.35 42.92 Q 306.33 45.2 307.68 46.8 Q 309.02 48.41 311.43 48.5 Z M 339.77 43.23 Q 338.52 42.31 337.9 41.14 Q 337.29 39.97 336.7 38.76 Q 335.45 36.28 333.5 35.59 Q 331.54 34.91 330.25 36.32 Q 328.95 37.74 328.99 39.57 Q 329.04 41.39 330.98 44.03 Q 333.14 47.08 333.36 49.55 Q 333.57 52.02 331.76 54.6 Q 331.62 54.77 331.66 54.91 Q 331.7 55.05 331.95 55.09 Q 332.79 55.3 333.93 56.28 Q 336.93 59.58 338.82 59.71 Q 340.7 59.83 341.82 58.43 Q 342.64 57.39 342.47 56 Q 342.3 54.62 339.14 52.06 Q 334.8 48.62 337.95 45.42 Q 338.91 44.46 339.79 43.76 Q 339.9 43.64 339.9 43.49 Q 339.9 43.35 339.77 43.23 Z M 322.48 37.92 Q 324.39 40.98 323.61 45.03 Q 323.14 47.45 321.31 49.7 Q 319.47 51.94 317.54 53.68 Q 317.29 53.97 317.58 54.19 Q 318.48 54.79 319.65 56.08 Q 321.58 58.31 323.45 59.01 Q 325.31 59.71 327.83 57.55 Q 330.23 55.5 329.63 53.02 Q 329.02 50.54 327.23 47.94 Q 325.21 45.03 325.59 42.47 Q 325.96 39.91 327.85 37.62 Q 328.03 37.45 327.85 37.21 Q 326.33 35.55 325.11 35.61 Q 323.89 35.67 322.48 37.57 Q 322.36 37.74 322.48 37.92 Z M 348.11 36.32 Q 347.85 35.95 348.14 35.74 Q 348.44 35.54 348.73 35.89 Q 349.59 36.96 350.12 38.19 Q 350.18 38.39 350.39 38.39 Q 350.57 38.43 350.7 38.23 Q 351.84 36.2 354.27 35.1 Q 356.7 33.99 359.2 34.21 Q 359.71 34.23 359.71 34.62 Q 359.71 35.01 359.22 34.97 Q 357.17 34.83 355.64 35.91 Q 354.12 36.98 354.14 40.05 L 354.18 44.42 Q 354.18 44.62 354.34 44.71 Q 354.49 44.79 354.65 44.7 Q 355.72 44.11 356.81 43.41 Q 357.89 42.7 358.81 41.82 Q 359.53 41.1 359.63 42.08 Q 359.71 42.8 360.23 43.37 Q 360.76 43.93 361.21 44.48 Q 363.85 47.84 363.93 51.75 Q 364.06 57.49 359.88 61.89 Q 355.7 66.3 352.29 68.62 Q 351.82 68.95 351.59 68.73 Q 351.37 68.5 351.72 68.21 Q 354.47 65.77 357.28 62.88 Q 360.08 59.99 359.82 53.72 Q 359.71 51.26 359.07 49.08 Q 358.44 46.9 356.76 45.46 Q 355.9 44.73 354.38 45.48 Q 354.2 45.54 354.2 45.77 L 354.28 57.57 Q 354.28 59.15 355.55 58.88 Q 355.82 58.8 356.04 58.58 Q 356.25 58.37 356.51 58.2 Q 356.78 58.04 356.99 58.23 Q 357.21 58.43 356.99 58.64 Q 356.04 59.7 355.06 60.59 Q 354.08 61.49 353.55 62.57 Q 353.32 63.04 352.85 62.57 Q 351.11 60.69 349.06 59.75 Q 348.4 59.4 348.96 59.11 Q 350.21 58.68 350.2 56.53 L 350.16 43.48 Q 350.14 40.85 349.56 39.17 Q 348.98 37.49 348.11 36.32 Z M 367.99 57.41 367.85 46.71 Q 367.85 46.34 367.73 46.1 Q 367.27 45.34 366.93 45.73 L 366.15 46.53 Q 365.84 46.88 365.56 46.61 Q 365.27 46.34 365.64 45.85 Q 366.5 44.77 367.19 43.7 Q 367.87 42.62 368.59 41.57 Q 368.91 41.2 369.32 41.59 Q 370.14 42.59 370.92 43.34 Q 371.7 44.09 373.14 44.93 Q 373.55 45.09 373.51 45.3 Q 373.46 45.52 373.24 45.54 Q 372.73 45.73 372.34 46.21 Q 371.95 46.69 371.95 47.8 V 56.06 Q 371.95 58.05 372.7 58.5 Q 373.55 59.01 374.1 58.07 Q 374.3 57.7 374.58 57.91 Q 374.86 58.11 374.57 58.58 Q 373.98 59.5 373.48 60.43 Q 372.97 61.36 372.44 62.27 Q 372.07 62.82 371.52 62.51 Q 369.77 61.67 368.88 60.46 Q 367.99 59.25 367.99 57.41 Z M 370.82 34.23 Q 372.99 34.23 372.79 36.32 Q 372.68 37.37 371.47 38.44 Q 370.27 39.5 369.57 39.48 Q 368.87 39.48 368.5 38.37 Q 368.12 37.25 368.2 36.32 Q 368.26 35.42 369.07 34.82 Q 369.88 34.23 370.82 34.23 Z M 383.26 37.8 Q 386 37.08 388.28 38.13 Q 389.82 38.88 390.68 40.18 Q 391.54 41.49 391.37 43.11 Q 391.19 44.73 390.3 45.52 Q 389.41 46.3 388.85 46.73 Q 388.28 47.16 387.77 47.62 Q 386.78 48.56 387.62 49.3 Q 390.25 51.59 390.65 53.15 Q 391.05 54.71 390.1 55.91 Q 388.77 57.55 387.28 59.02 Q 385.78 60.5 384.32 62 Q 383.59 62.7 383.44 61.92 Q 383.18 60.85 381.14 60.04 Q 379.1 59.23 376.84 58.48 Q 376.43 58.33 376.78 57.9 Q 377.3 57.35 377.87 56.8 Q 378.44 56.26 379 55.73 Q 379.88 54.91 379.6 54.28 Q 379.32 53.64 378.55 52.84 Q 376.64 50.85 376.71 49.11 Q 376.78 47.37 377.97 46.04 Q 379.08 44.81 380.48 43.79 Q 381.88 42.76 383.12 41.49 Q 383.28 41.36 383.54 41.59 Q 386.15 43.91 387.9 43.93 Q 389.65 43.95 390.18 42.9 Q 390.7 41.82 390.08 40.66 Q 389.45 39.5 388.05 38.74 Q 385.92 37.68 383.38 38.54 Q 382.87 38.74 382.77 38.33 Q 382.68 37.92 383.26 37.8 Z M 380.14 55.34 Q 379.94 55.67 380.25 55.85 Q 381.64 56.49 383.03 57.12 Q 384.41 57.74 385.82 58.33 Q 386.8 58.76 387.77 57.21 Q 388.98 55.28 384.57 52.14 Q 383.89 51.73 382.89 52.53 Z M 382.83 51.28 Q 383.07 51.45 383.26 51.26 L 386.89 47.7 Q 387.07 47.51 387 47.34 Q 386.93 47.18 386.7 47.16 Q 385.59 47.04 384.24 46.3 Q 382.07 45.07 381.41 44.64 Q 380.74 44.21 379.71 45.42 Q 378.4 46.96 379.7 48.37 Q 381 49.77 382.83 51.28 Z M 395.78 38.88 Q 394.92 39.77 395.02 40.62 Q 395.12 41.47 396.43 41.86 Q 398.11 42.37 398.65 43.18 Q 399.2 43.99 399.32 45.07 Q 399.34 45.26 399.48 45.32 Q 399.63 45.38 399.79 45.32 Q 402.27 43.88 404.88 41.86 Q 405.04 41.75 405.2 41.82 Q 405.35 41.9 405.39 42.06 Q 405.59 43.11 406.18 43.86 Q 406.78 44.6 407.42 45.32 Q 409.82 48.04 409.55 51.39 Q 409.28 55.52 406.68 57.7 Q 403.81 60.12 402.27 62.25 Q 402.07 62.51 401.82 62.33 Q 401.33 62.04 400.84 61.77 Q 400.35 61.49 399.86 61.2 Q 399.71 61.12 399.56 61.19 Q 399.41 61.26 399.41 61.45 Q 399.18 63.56 398.82 65.59 Q 398.46 67.62 398.05 69.68 Q 397.97 69.95 397.71 69.94 Q 397.46 69.93 397.4 69.68 Q 396.99 67.31 396.63 64.63 Q 396.27 61.94 396.07 59.46 Q 396.04 59.25 395.86 59.19 Q 393.89 58.46 393.07 59.36 Q 392.89 59.54 392.71 59.47 Q 392.52 59.4 392.52 59.13 Q 392.54 55.95 395.57 55.75 Q 395.86 55.75 395.86 55.44 V 54.83 Q 395.86 51.92 395.77 50.65 Q 395.68 49.38 395.62 47.57 Q 395.59 46.69 395.18 46.22 Q 394.77 45.75 394.36 45.4 Q 392.58 43.93 392.88 42.17 Q 393.18 40.4 395.2 38.56 Q 395.55 38.19 395.8 38.4 Q 396.05 38.6 395.78 38.88 Z M 399.65 56.57 Q 399.65 56.8 399.82 56.86 Q 400.82 57.37 401.77 57.94 Q 402.71 58.5 403.69 59.05 Q 403.98 59.19 404.14 58.93 Q 404.73 58.02 405.23 56.67 Q 405.74 55.32 405.78 53.31 Q 405.82 51.22 404.97 49.57 Q 404.12 47.92 403.12 46.41 Q 402.09 44.97 399.55 46.2 Q 399.36 46.3 399.36 46.49 Q 399.38 46.73 399.38 47.2 L 399.63 54.93 Q 399.65 55.5 399.65 56.57 Z M 417.05 62.55 Q 417.01 62.08 416.55 61.84 Q 416.09 61.61 415.78 61.38 Q 413.54 59.85 412.61 57.65 Q 411.68 55.46 411.56 53 Q 411.33 47.43 414.57 44.52 Q 415.72 43.48 417.23 42.83 Q 418.73 42.18 420.31 41.77 Q 420.8 41.67 421.04 42.25 L 423.85 48.86 Q 424.04 49.38 423.71 49.52 H 423.67 L 415.66 52.62 Q 415.43 52.74 415.47 53 Q 416.43 57.33 418.67 58.55 Q 420.92 59.77 423.14 58.91 Q 423.54 58.74 423.64 58.97 Q 423.75 59.21 423.5 59.32 Q 421.91 60.12 420.48 60.96 Q 419.04 61.8 417.91 62.72 Q 417.73 62.84 417.39 62.8 Q 417.05 62.76 417.05 62.55 Z M 415.23 51.51 Q 415.25 51.67 415.37 51.76 Q 415.49 51.84 415.66 51.77 L 419.82 50.2 Q 420.12 50.09 420 49.79 L 417.62 43.95 Q 417.44 43.52 416.91 43.84 Q 415.78 44.5 415.37 46.86 Q 414.96 49.23 415.23 51.51 Z M 432.54 47.35 432.52 56.82 Q 432.52 57.45 432.83 57.62 L 434.24 58.45 Q 434.69 58.72 435.61 57.49 Q 435.8 57.23 436.09 57.38 Q 436.39 57.53 436.09 57.88 Q 434.04 60.16 432.95 62.37 Q 432.62 62.82 432.23 62.37 Q 431.13 61.1 430.19 60.44 Q 429.24 59.77 427.4 59.34 Q 427.05 59.25 427.05 59.03 Q 427.05 58.82 427.3 58.72 Q 428.61 58.5 428.59 56.47 V 48.21 Q 428.59 46.22 427.85 45.77 Q 426.99 45.2 426.45 46.18 Q 426.23 46.59 425.96 46.38 Q 425.68 46.16 425.98 45.69 Q 426.54 44.79 427.06 43.86 Q 427.58 42.92 428.12 41.98 Q 428.46 41.39 429 41.77 Q 431.88 43.15 432.44 45.28 Q 432.5 45.48 432.68 45.53 Q 432.85 45.57 432.99 45.4 L 436 41.94 Q 436.11 41.82 436.27 41.83 Q 436.43 41.84 436.52 42 L 438.57 45.93 Q 438.65 46.1 438.54 46.26 L 436.19 49.07 Q 436.05 49.21 435.89 49.19 Q 435.72 49.17 435.66 49.01 L 434.08 46.08 Q 434 45.96 433.84 45.94 Q 433.67 45.91 433.54 46.04 L 432.62 47.16 Q 432.54 47.23 432.54 47.35 Z M 446.97 37.8 Q 449.71 37.08 451.99 38.13 Q 453.54 38.88 454.39 40.18 Q 455.25 41.49 455.08 43.11 Q 454.9 44.73 454.01 45.52 Q 453.12 46.3 452.56 46.73 Q 451.99 47.16 451.48 47.62 Q 450.49 48.56 451.33 49.3 Q 453.96 51.59 454.37 53.15 Q 454.77 54.71 453.81 55.91 Q 452.48 57.55 450.99 59.02 Q 449.49 60.5 448.03 62 Q 447.3 62.7 447.15 61.92 Q 446.89 60.85 444.85 60.04 Q 442.81 59.23 440.55 58.48 Q 440.14 58.33 440.49 57.9 Q 441.02 57.35 441.58 56.8 Q 442.15 56.26 442.71 55.73 Q 443.59 54.91 443.31 54.28 Q 443.03 53.64 442.27 52.84 Q 440.35 50.85 440.42 49.11 Q 440.49 47.37 441.68 46.04 Q 442.79 44.81 444.19 43.79 Q 445.59 42.76 446.84 41.49 Q 446.99 41.36 447.25 41.59 Q 449.86 43.91 451.61 43.93 Q 453.36 43.95 453.89 42.9 Q 454.41 41.82 453.79 40.66 Q 453.16 39.5 451.76 38.74 Q 449.63 37.68 447.09 38.54 Q 446.58 38.74 446.48 38.33 Q 446.39 37.92 446.97 37.8 Z M 443.85 55.34 Q 443.65 55.67 443.96 55.85 Q 445.35 56.49 446.74 57.12 Q 448.12 57.74 449.53 58.33 Q 450.51 58.76 451.48 57.21 Q 452.7 55.28 448.28 52.14 Q 447.6 51.73 446.6 52.53 Z M 446.54 51.28 Q 446.78 51.45 446.97 51.26 L 450.61 47.7 Q 450.78 47.51 450.71 47.34 Q 450.64 47.18 450.41 47.16 Q 449.3 47.04 447.95 46.3 Q 445.78 45.07 445.12 44.64 Q 444.45 44.21 443.42 45.42 Q 442.11 46.96 443.41 48.37 Q 444.71 49.77 446.54 51.28 Z"/><path fill="url(#sh)"  d="M 311.43 48.5 Q 314.06 48.62 315.78 47.14 Q 316.13 46.8 316.4 47.01 Q 316.66 47.21 316.41 47.49 Q 314.22 49.62 311.82 49.52 Q 308.77 49.46 306.84 47.46 Q 304.9 45.46 304.88 42.18 Q 304.71 38.8 307.48 36.26 Q 310.25 33.72 314.28 33.72 Q 318.73 33.72 321.52 36.69 Q 321.8 36.94 322.01 36.65 Q 323.93 33.64 325.17 33.59 Q 326.41 33.54 328.48 36.39 Q 328.69 36.69 328.96 36.45 Q 329.36 36.06 329.57 35.87 Q 332.4 33.29 336.28 33.65 Q 340.16 34.01 341.91 37.45 Q 342.44 38.54 342.72 39.55 Q 343.01 40.55 343.98 41.14 Q 344.53 41.45 344.53 41.73 Q 344.53 42 344.18 42.08 Q 342.87 42.37 341.62 43.19 Q 340.29 44.6 340.78 45.84 Q 341.27 47.08 343.34 48.54 Q 345.98 50.48 345.69 53.25 Q 345.41 56.02 342.48 58.84 Q 338.77 62.43 335.55 62.45 Q 332.32 62.47 329.75 59.77 Q 328.46 58.45 326.91 59.5 Q 322.7 62.8 319.91 62.24 Q 317.13 61.69 315.27 59.11 Q 312.27 54.97 308.83 57.1 Q 308.38 57.41 308.15 57.15 Q 307.93 56.88 308.26 56.59 Q 311 54.21 312.96 53.62 Q 314.92 53.04 316.45 53.58 Q 316.68 53.66 316.8 53.5 Q 318.3 51.8 319.21 49.64 Q 320.12 47.47 320 45.07 Q 319.86 42.55 317.75 39.94 Q 315.64 37.33 312.11 37.62 Q 310 37.82 308.23 39.23 Q 306.46 40.63 306.35 42.92 Q 306.33 45.2 307.68 46.8 Q 309.02 48.41 311.43 48.5 Z M 339.77 43.23 Q 338.52 42.31 337.9 41.14 Q 337.29 39.97 336.7 38.76 Q 335.45 36.28 333.5 35.59 Q 331.54 34.91 330.25 36.32 Q 328.95 37.74 328.99 39.57 Q 329.04 41.39 330.98 44.03 Q 333.14 47.08 333.36 49.55 Q 333.57 52.02 331.76 54.6 Q 331.62 54.77 331.66 54.91 Q 331.7 55.05 331.95 55.09 Q 332.79 55.3 333.93 56.28 Q 336.93 59.58 338.82 59.71 Q 340.7 59.83 341.82 58.43 Q 342.64 57.39 342.47 56 Q 342.3 54.62 339.14 52.06 Q 334.8 48.62 337.95 45.42 Q 338.91 44.46 339.79 43.76 Q 339.9 43.64 339.9 43.49 Q 339.9 43.35 339.77 43.23 Z M 322.48 37.92 Q 324.39 40.98 323.61 45.03 Q 323.14 47.45 321.31 49.7 Q 319.47 51.94 317.54 53.68 Q 317.29 53.97 317.58 54.19 Q 318.48 54.79 319.65 56.08 Q 321.58 58.31 323.45 59.01 Q 325.31 59.71 327.83 57.55 Q 330.23 55.5 329.63 53.02 Q 329.02 50.54 327.23 47.94 Q 325.21 45.03 325.59 42.47 Q 325.96 39.91 327.85 37.62 Q 328.03 37.45 327.85 37.21 Q 326.33 35.55 325.11 35.61 Q 323.89 35.67 322.48 37.57 Q 322.36 37.74 322.48 37.92 Z M 348.11 36.32 Q 347.85 35.95 348.14 35.74 Q 348.44 35.54 348.73 35.89 Q 349.59 36.96 350.12 38.19 Q 350.18 38.39 350.39 38.39 Q 350.57 38.43 350.7 38.23 Q 351.84 36.2 354.27 35.1 Q 356.7 33.99 359.2 34.21 Q 359.71 34.23 359.71 34.62 Q 359.71 35.01 359.22 34.97 Q 357.17 34.83 355.64 35.91 Q 354.12 36.98 354.14 40.05 L 354.18 44.42 Q 354.18 44.62 354.34 44.71 Q 354.49 44.79 354.65 44.7 Q 355.72 44.11 356.81 43.41 Q 357.89 42.7 358.81 41.82 Q 359.53 41.1 359.63 42.08 Q 359.71 42.8 360.23 43.37 Q 360.76 43.93 361.21 44.48 Q 363.85 47.84 363.93 51.75 Q 364.06 57.49 359.88 61.89 Q 355.7 66.3 352.29 68.62 Q 351.82 68.95 351.59 68.73 Q 351.37 68.5 351.72 68.21 Q 354.47 65.77 357.28 62.88 Q 360.08 59.99 359.82 53.72 Q 359.71 51.26 359.07 49.08 Q 358.44 46.9 356.76 45.46 Q 355.9 44.73 354.38 45.48 Q 354.2 45.54 354.2 45.77 L 354.28 57.57 Q 354.28 59.15 355.55 58.88 Q 355.82 58.8 356.04 58.58 Q 356.25 58.37 356.51 58.2 Q 356.78 58.04 356.99 58.23 Q 357.21 58.43 356.99 58.64 Q 356.04 59.7 355.06 60.59 Q 354.08 61.49 353.55 62.57 Q 353.32 63.04 352.85 62.57 Q 351.11 60.69 349.06 59.75 Q 348.4 59.4 348.96 59.11 Q 350.21 58.68 350.2 56.53 L 350.16 43.48 Q 350.14 40.85 349.56 39.17 Q 348.98 37.49 348.11 36.32 Z M 367.99 57.41 367.85 46.71 Q 367.85 46.34 367.73 46.1 Q 367.27 45.34 366.93 45.73 L 366.15 46.53 Q 365.84 46.88 365.56 46.61 Q 365.27 46.34 365.64 45.85 Q 366.5 44.77 367.19 43.7 Q 367.87 42.62 368.59 41.57 Q 368.91 41.2 369.32 41.59 Q 370.14 42.59 370.92 43.34 Q 371.7 44.09 373.14 44.93 Q 373.55 45.09 373.51 45.3 Q 373.46 45.52 373.24 45.54 Q 372.73 45.73 372.34 46.21 Q 371.95 46.69 371.95 47.8 V 56.06 Q 371.95 58.05 372.7 58.5 Q 373.55 59.01 374.1 58.07 Q 374.3 57.7 374.58 57.91 Q 374.86 58.11 374.57 58.58 Q 373.98 59.5 373.48 60.43 Q 372.97 61.36 372.44 62.27 Q 372.07 62.82 371.52 62.51 Q 369.77 61.67 368.88 60.46 Q 367.99 59.25 367.99 57.41 Z M 370.82 34.23 Q 372.99 34.23 372.79 36.32 Q 372.68 37.37 371.47 38.44 Q 370.27 39.5 369.57 39.48 Q 368.87 39.48 368.5 38.37 Q 368.12 37.25 368.2 36.32 Q 368.26 35.42 369.07 34.82 Q 369.88 34.23 370.82 34.23 Z M 383.26 37.8 Q 386 37.08 388.28 38.13 Q 389.82 38.88 390.68 40.18 Q 391.54 41.49 391.37 43.11 Q 391.19 44.73 390.3 45.52 Q 389.41 46.3 388.85 46.73 Q 388.28 47.16 387.77 47.62 Q 386.78 48.56 387.62 49.3 Q 390.25 51.59 390.65 53.15 Q 391.05 54.71 390.1 55.91 Q 388.77 57.55 387.28 59.02 Q 385.78 60.5 384.32 62 Q 383.59 62.7 383.44 61.92 Q 383.18 60.85 381.14 60.04 Q 379.1 59.23 376.84 58.48 Q 376.43 58.33 376.78 57.9 Q 377.3 57.35 377.87 56.8 Q 378.44 56.26 379 55.73 Q 379.88 54.91 379.6 54.28 Q 379.32 53.64 378.55 52.84 Q 376.64 50.85 376.71 49.11 Q 376.78 47.37 377.97 46.04 Q 379.08 44.81 380.48 43.79 Q 381.88 42.76 383.12 41.49 Q 383.28 41.36 383.54 41.59 Q 386.15 43.91 387.9 43.93 Q 389.65 43.95 390.18 42.9 Q 390.7 41.82 390.08 40.66 Q 389.45 39.5 388.05 38.74 Q 385.92 37.68 383.38 38.54 Q 382.87 38.74 382.77 38.33 Q 382.68 37.92 383.26 37.8 Z M 380.14 55.34 Q 379.94 55.67 380.25 55.85 Q 381.64 56.49 383.03 57.12 Q 384.41 57.74 385.82 58.33 Q 386.8 58.76 387.77 57.21 Q 388.98 55.28 384.57 52.14 Q 383.89 51.73 382.89 52.53 Z M 382.83 51.28 Q 383.07 51.45 383.26 51.26 L 386.89 47.7 Q 387.07 47.51 387 47.34 Q 386.93 47.18 386.7 47.16 Q 385.59 47.04 384.24 46.3 Q 382.07 45.07 381.41 44.64 Q 380.74 44.21 379.71 45.42 Q 378.4 46.96 379.7 48.37 Q 381 49.77 382.83 51.28 Z M 395.78 38.88 Q 394.92 39.77 395.02 40.62 Q 395.12 41.47 396.43 41.86 Q 398.11 42.37 398.65 43.18 Q 399.2 43.99 399.32 45.07 Q 399.34 45.26 399.48 45.32 Q 399.63 45.38 399.79 45.32 Q 402.27 43.88 404.88 41.86 Q 405.04 41.75 405.2 41.82 Q 405.35 41.9 405.39 42.06 Q 405.59 43.11 406.18 43.86 Q 406.78 44.6 407.42 45.32 Q 409.82 48.04 409.55 51.39 Q 409.28 55.52 406.68 57.7 Q 403.81 60.12 402.27 62.25 Q 402.07 62.51 401.82 62.33 Q 401.33 62.04 400.84 61.77 Q 400.35 61.49 399.86 61.2 Q 399.71 61.12 399.56 61.19 Q 399.41 61.26 399.41 61.45 Q 399.18 63.56 398.82 65.59 Q 398.46 67.62 398.05 69.68 Q 397.97 69.95 397.71 69.94 Q 397.46 69.93 397.4 69.68 Q 396.99 67.31 396.63 64.63 Q 396.27 61.94 396.07 59.46 Q 396.04 59.25 395.86 59.19 Q 393.89 58.46 393.07 59.36 Q 392.89 59.54 392.71 59.47 Q 392.52 59.4 392.52 59.13 Q 392.54 55.95 395.57 55.75 Q 395.86 55.75 395.86 55.44 V 54.83 Q 395.86 51.92 395.77 50.65 Q 395.68 49.38 395.62 47.57 Q 395.59 46.69 395.18 46.22 Q 394.77 45.75 394.36 45.4 Q 392.58 43.93 392.88 42.17 Q 393.18 40.4 395.2 38.56 Q 395.55 38.19 395.8 38.4 Q 396.05 38.6 395.78 38.88 Z M 399.65 56.57 Q 399.65 56.8 399.82 56.86 Q 400.82 57.37 401.77 57.94 Q 402.71 58.5 403.69 59.05 Q 403.98 59.19 404.14 58.93 Q 404.73 58.02 405.23 56.67 Q 405.74 55.32 405.78 53.31 Q 405.82 51.22 404.97 49.57 Q 404.12 47.92 403.12 46.41 Q 402.09 44.97 399.55 46.2 Q 399.36 46.3 399.36 46.49 Q 399.38 46.73 399.38 47.2 L 399.63 54.93 Q 399.65 55.5 399.65 56.57 Z M 417.05 62.55 Q 417.01 62.08 416.55 61.84 Q 416.09 61.61 415.78 61.38 Q 413.54 59.85 412.61 57.65 Q 411.68 55.46 411.56 53 Q 411.33 47.43 414.57 44.52 Q 415.72 43.48 417.23 42.83 Q 418.73 42.18 420.31 41.77 Q 420.8 41.67 421.04 42.25 L 423.85 48.86 Q 424.04 49.38 423.71 49.52 H 423.67 L 415.66 52.62 Q 415.43 52.74 415.47 53 Q 416.43 57.33 418.67 58.55 Q 420.92 59.77 423.14 58.91 Q 423.54 58.74 423.64 58.97 Q 423.75 59.21 423.5 59.32 Q 421.91 60.12 420.48 60.96 Q 419.04 61.8 417.91 62.72 Q 417.73 62.84 417.39 62.8 Q 417.05 62.76 417.05 62.55 Z M 415.23 51.51 Q 415.25 51.67 415.37 51.76 Q 415.49 51.84 415.66 51.77 L 419.82 50.2 Q 420.12 50.09 420 49.79 L 417.62 43.95 Q 417.44 43.52 416.91 43.84 Q 415.78 44.5 415.37 46.86 Q 414.96 49.23 415.23 51.51 Z M 432.54 47.35 432.52 56.82 Q 432.52 57.45 432.83 57.62 L 434.24 58.45 Q 434.69 58.72 435.61 57.49 Q 435.8 57.23 436.09 57.38 Q 436.39 57.53 436.09 57.88 Q 434.04 60.16 432.95 62.37 Q 432.62 62.82 432.23 62.37 Q 431.13 61.1 430.19 60.44 Q 429.24 59.77 427.4 59.34 Q 427.05 59.25 427.05 59.03 Q 427.05 58.82 427.3 58.72 Q 428.61 58.5 428.59 56.47 V 48.21 Q 428.59 46.22 427.85 45.77 Q 426.99 45.2 426.45 46.18 Q 426.23 46.59 425.96 46.38 Q 425.68 46.16 425.98 45.69 Q 426.54 44.79 427.06 43.86 Q 427.58 42.92 428.12 41.98 Q 428.46 41.39 429 41.77 Q 431.88 43.15 432.44 45.28 Q 432.5 45.48 432.68 45.53 Q 432.85 45.57 432.99 45.4 L 436 41.94 Q 436.11 41.82 436.27 41.83 Q 436.43 41.84 436.52 42 L 438.57 45.93 Q 438.65 46.1 438.54 46.26 L 436.19 49.07 Q 436.05 49.21 435.89 49.19 Q 435.72 49.17 435.66 49.01 L 434.08 46.08 Q 434 45.96 433.84 45.94 Q 433.67 45.91 433.54 46.04 L 432.62 47.16 Q 432.54 47.23 432.54 47.35 Z M 446.97 37.8 Q 449.71 37.08 451.99 38.13 Q 453.54 38.88 454.39 40.18 Q 455.25 41.49 455.08 43.11 Q 454.9 44.73 454.01 45.52 Q 453.12 46.3 452.56 46.73 Q 451.99 47.16 451.48 47.62 Q 450.49 48.56 451.33 49.3 Q 453.96 51.59 454.37 53.15 Q 454.77 54.71 453.81 55.91 Q 452.48 57.55 450.99 59.02 Q 449.49 60.5 448.03 62 Q 447.3 62.7 447.15 61.92 Q 446.89 60.85 444.85 60.04 Q 442.81 59.23 440.55 58.48 Q 440.14 58.33 440.49 57.9 Q 441.02 57.35 441.58 56.8 Q 442.15 56.26 442.71 55.73 Q 443.59 54.91 443.31 54.28 Q 443.03 53.64 442.27 52.84 Q 440.35 50.85 440.42 49.11 Q 440.49 47.37 441.68 46.04 Q 442.79 44.81 444.19 43.79 Q 445.59 42.76 446.84 41.49 Q 446.99 41.36 447.25 41.59 Q 449.86 43.91 451.61 43.93 Q 453.36 43.95 453.89 42.9 Q 454.41 41.82 453.79 40.66 Q 453.16 39.5 451.76 38.74 Q 449.63 37.68 447.09 38.54 Q 446.58 38.74 446.48 38.33 Q 446.39 37.92 446.97 37.8 Z M 443.85 55.34 Q 443.65 55.67 443.96 55.85 Q 445.35 56.49 446.74 57.12 Q 448.12 57.74 449.53 58.33 Q 450.51 58.76 451.48 57.21 Q 452.7 55.28 448.28 52.14 Q 447.6 51.73 446.6 52.53 Z M 446.54 51.28 Q 446.78 51.45 446.97 51.26 L 450.61 47.7 Q 450.78 47.51 450.71 47.34 Q 450.64 47.18 450.41 47.16 Q 449.3 47.04 447.95 46.3 Q 445.78 45.07 445.12 44.64 Q 444.45 44.21 443.42 45.42 Q 442.11 46.96 443.41 48.37 Q 444.71 49.77 446.54 51.28 Z"/><path fill="#ff8cc6" d="M 237.26 76.46 240.58 83.94 H 239.03 L 236.76 78.14 Z M 235 83.23 Q 234.92 83.44 234.97 83.59 Q 235.02 83.74 235.15 83.82 Q 235.27 83.89 235.4 83.89 H 235.5 V 84 H 233.29 V 83.89 Q 233.29 83.89 233.34 83.89 Q 233.39 83.89 233.39 83.89 Q 233.63 83.89 233.88 83.74 Q 234.14 83.59 234.31 83.23 Z M 237.26 76.46 237.32 77.56 234.7 83.97 H 233.98 L 236.69 77.74 Q 236.71 77.7 236.78 77.54 Q 236.85 77.38 236.94 77.17 Q 237.03 76.96 237.09 76.76 Q 237.16 76.57 237.16 76.46 Z M 238.49 81.38 V 81.78 H 235.33 V 81.38 Z M 238.75 83.23 H 240.26 Q 240.43 83.59 240.69 83.74 Q 240.95 83.89 241.19 83.89 Q 241.19 83.89 241.23 83.89 Q 241.27 83.89 241.27 83.89 V 84 H 238.26 V 83.89 H 238.35 Q 238.55 83.89 238.71 83.72 Q 238.87 83.55 238.75 83.23 Z M 251.33 76.65 H 252.73 Q 253.2 76.65 253.63 76.77 Q 254.06 76.88 254.38 77.12 Q 254.7 77.36 254.89 77.73 Q 255.07 78.11 255.07 78.63 Q 255.07 79.09 254.87 79.54 Q 254.67 79.98 254.29 80.29 Q 253.9 80.59 253.33 80.63 Q 253.62 80.72 253.87 80.98 Q 254.13 81.24 254.3 81.49 Q 254.31 81.5 254.43 81.69 Q 254.55 81.87 254.73 82.13 Q 254.91 82.39 255.1 82.65 Q 255.29 82.92 255.44 83.1 Q 255.67 83.37 255.86 83.54 Q 256.06 83.71 256.28 83.8 Q 256.5 83.89 256.79 83.89 V 84 H 255.91 Q 255.37 84 254.94 83.88 Q 254.52 83.77 254.2 83.54 Q 253.88 83.31 253.65 82.97 Q 253.59 82.86 253.47 82.67 Q 253.36 82.47 253.22 82.24 Q 253.09 82 252.96 81.77 Q 252.83 81.54 252.74 81.36 Q 252.64 81.19 252.61 81.11 Q 252.45 80.8 252.25 80.62 Q 252.05 80.43 251.82 80.41 V 80.3 Q 251.83 80.3 251.95 80.31 Q 252.07 80.31 252.22 80.3 Q 252.5 80.3 252.79 80.2 Q 253.07 80.1 253.3 79.85 Q 253.54 79.6 253.65 79.13 Q 253.67 79.03 253.69 78.88 Q 253.7 78.74 253.69 78.58 Q 253.67 77.84 253.32 77.47 Q 252.97 77.09 252.43 77.07 Q 252.24 77.06 252.02 77.06 Q 251.8 77.06 251.64 77.06 Q 251.47 77.06 251.44 77.06 Q 251.44 77.06 251.41 76.96 Q 251.39 76.85 251.36 76.75 Q 251.33 76.65 251.33 76.65 Z M 251.47 76.65 V 84 H 250.19 V 76.65 Z M 250.22 83.23 V 84 H 249.38 V 83.89 Q 249.39 83.89 249.45 83.89 Q 249.51 83.89 249.52 83.89 Q 249.79 83.89 249.98 83.7 Q 250.18 83.51 250.19 83.23 Z M 250.22 77.42 H 250.19 Q 250.18 77.14 249.98 76.95 Q 249.79 76.75 249.52 76.75 Q 249.51 76.75 249.45 76.75 Q 249.39 76.75 249.38 76.75 V 76.65 H 250.22 Z M 251.44 83.23 H 251.47 Q 251.47 83.51 251.67 83.7 Q 251.87 83.89 252.14 83.89 Q 252.15 83.89 252.21 83.89 Q 252.26 83.89 252.27 83.89 V 84 H 251.44 Z M 262.79 76.46 266.11 83.94 H 264.56 L 262.3 78.14 Z M 260.54 83.23 Q 260.45 83.44 260.51 83.59 Q 260.56 83.74 260.68 83.82 Q 260.81 83.89 260.94 83.89 H 261.03 V 84 H 258.83 V 83.89 Q 258.83 83.89 258.87 83.89 Q 258.92 83.89 258.92 83.89 Q 259.16 83.89 259.42 83.74 Q 259.68 83.59 259.84 83.23 Z M 262.79 76.46 262.85 77.56 260.24 83.97 H 259.52 L 262.23 77.74 Q 262.25 77.7 262.32 77.54 Q 262.39 77.38 262.48 77.17 Q 262.56 76.96 262.63 76.76 Q 262.7 76.57 262.7 76.46 Z M 264.02 81.38 V 81.78 H 260.86 V 81.38 Z M 264.28 83.23 H 265.8 Q 265.97 83.59 266.22 83.74 Q 266.48 83.89 266.72 83.89 Q 266.72 83.89 266.77 83.89 Q 266.81 83.89 266.81 83.89 V 84 H 263.79 V 83.89 H 263.88 Q 264.09 83.89 264.25 83.72 Q 264.41 83.55 264.28 83.23 Z M 270.37 76.49 276.87 82.92 276.98 84.15 270.48 77.73 Z M 270.4 83.25 V 84 H 269.53 V 83.89 Q 269.53 83.89 269.63 83.89 Q 269.72 83.89 269.73 83.89 Q 269.99 83.89 270.18 83.71 Q 270.37 83.52 270.37 83.25 Z M 271.54 83.25 Q 271.54 83.52 271.72 83.71 Q 271.91 83.89 272.18 83.89 Q 272.19 83.89 272.28 83.89 Q 272.38 83.89 272.38 83.89 V 84 H 271.5 V 83.25 Z M 270.37 76.49 271.52 77.76 271.54 84 H 270.37 V 77.81 Q 270.37 77.24 270.32 76.86 Q 270.26 76.49 270.26 76.49 Z M 276.96 76.65 V 82.8 Q 276.96 83.18 276.99 83.48 Q 277.02 83.79 277.04 83.97 Q 277.07 84.15 277.07 84.15 H 276.98 L 275.81 82.83 V 76.65 Z M 277.8 76.65 V 76.75 Q 277.8 76.75 277.71 76.75 Q 277.61 76.75 277.61 76.75 Q 277.35 76.75 277.16 76.94 Q 276.97 77.12 276.96 77.4 H 276.93 V 76.65 Z M 274.96 76.65 H 275.83 V 77.4 H 275.81 Q 275.8 77.12 275.61 76.94 Q 275.43 76.75 275.16 76.75 Q 275.16 76.75 275.06 76.75 Q 274.97 76.75 274.96 76.75 Z M 285 76.65 Q 286.2 76.65 287.08 77.1 Q 287.96 77.55 288.45 78.37 Q 288.94 79.2 288.94 80.33 Q 288.94 81.45 288.45 82.27 Q 287.96 83.1 287.08 83.55 Q 286.2 84 285 84 H 282.58 L 282.57 83.6 Q 282.77 83.6 283.07 83.6 Q 283.36 83.6 283.69 83.6 Q 284.01 83.6 284.29 83.6 Q 284.57 83.6 284.74 83.6 Q 284.91 83.6 284.91 83.6 Q 285.72 83.6 286.3 83.2 Q 286.89 82.79 287.21 82.06 Q 287.53 81.32 287.53 80.33 Q 287.53 79.33 287.21 78.59 Q 286.89 77.86 286.3 77.45 Q 285.71 77.05 284.91 77.05 Q 284.91 77.05 284.73 77.05 Q 284.55 77.05 284.26 77.05 Q 283.97 77.05 283.63 77.05 Q 283.3 77.05 282.99 77.05 Q 282.68 77.05 282.46 77.05 V 76.65 Z M 283.35 76.65 V 84 H 282.08 V 76.65 Z M 282.11 83.23 V 84 H 281.27 V 83.89 Q 281.27 83.89 281.34 83.89 Q 281.4 83.89 281.4 83.89 Q 281.68 83.89 281.87 83.7 Q 282.06 83.51 282.08 83.23 Z M 282.11 77.42 H 282.08 Q 282.08 77.14 281.88 76.95 Q 281.68 76.75 281.4 76.75 Q 281.4 76.75 281.34 76.75 Q 281.28 76.75 281.28 76.75 L 281.27 76.65 H 282.11 Z M 296.58 76.5 Q 297.8 76.5 298.7 76.97 Q 299.6 77.44 300.1 78.3 Q 300.6 79.15 300.6 80.33 Q 300.6 81.49 300.1 82.35 Q 299.6 83.21 298.7 83.68 Q 297.8 84.15 296.58 84.15 Q 295.37 84.15 294.47 83.68 Q 293.56 83.21 293.07 82.35 Q 292.57 81.5 292.57 80.33 Q 292.57 79.16 293.07 78.3 Q 293.56 77.44 294.47 76.97 Q 295.37 76.5 296.58 76.5 Z M 296.58 83.75 Q 297.37 83.75 297.96 83.33 Q 298.54 82.9 298.86 82.14 Q 299.18 81.37 299.18 80.33 Q 299.18 79.28 298.86 78.51 Q 298.54 77.75 297.96 77.32 Q 297.37 76.9 296.58 76.9 Q 295.79 76.9 295.21 77.32 Q 294.63 77.75 294.31 78.51 Q 293.99 79.28 293.99 80.33 Q 293.99 81.37 294.31 82.14 Q 294.63 82.9 295.21 83.33 Q 295.79 83.75 296.58 83.75 Z M 311.72 76.5 311.8 77.5 308.85 83.06 Q 308.85 83.06 308.75 83.24 Q 308.66 83.42 308.56 83.68 Q 308.47 83.94 308.45 84.19 H 308.35 L 308.03 83.36 Z M 304.82 83.23 V 84 H 303.65 V 83.89 Q 303.67 83.89 303.74 83.89 Q 303.82 83.89 303.82 83.89 Q 304.11 83.89 304.33 83.72 Q 304.55 83.55 304.59 83.23 Z M 305.23 83.4 Q 305.23 83.41 305.23 83.42 Q 305.23 83.43 305.23 83.45 Q 305.23 83.62 305.35 83.76 Q 305.47 83.91 305.64 83.91 H 305.8 V 84 H 305.16 V 83.4 Z M 305.43 76.5 H 305.53 L 305.85 77.41 L 305.17 84 H 304.5 Z M 305.53 76.5 308.83 82.44 308.35 84.19 305.29 78.55 Z M 311.81 76.5 312.78 84 H 311.38 L 310.84 78.66 L 311.72 76.5 Z M 312.46 83.23 H 312.68 Q 312.74 83.55 312.95 83.72 Q 313.17 83.89 313.45 83.89 Q 313.45 83.89 313.53 83.89 Q 313.61 83.89 313.62 83.89 V 84 H 312.46 Z M 311.32 83.4 H 311.4 V 84 H 310.75 V 83.91 H 310.91 Q 311.09 83.91 311.21 83.76 Q 311.32 83.62 311.32 83.45 Q 311.32 83.43 311.32 83.42 Q 311.32 83.41 311.32 83.4 Z M 325.66 76.65 Q 326.86 76.65 327.74 77.1 Q 328.62 77.55 329.11 78.37 Q 329.6 79.2 329.6 80.33 Q 329.6 81.45 329.11 82.27 Q 328.62 83.1 327.74 83.55 Q 326.86 84 325.66 84 H 323.24 L 323.23 83.6 Q 323.43 83.6 323.73 83.6 Q 324.03 83.6 324.35 83.6 Q 324.67 83.6 324.95 83.6 Q 325.23 83.6 325.4 83.6 Q 325.57 83.6 325.57 83.6 Q 326.38 83.6 326.96 83.2 Q 327.55 82.79 327.87 82.06 Q 328.19 81.32 328.19 80.33 Q 328.19 79.33 327.87 78.59 Q 327.55 77.86 326.96 77.45 Q 326.37 77.05 325.57 77.05 Q 325.57 77.05 325.39 77.05 Q 325.21 77.05 324.92 77.05 Q 324.63 77.05 324.29 77.05 Q 323.96 77.05 323.65 77.05 Q 323.34 77.05 323.12 77.05 V 76.65 Z M 324.01 76.65 V 84 H 322.74 V 76.65 Z M 322.77 83.23 V 84 H 321.93 V 83.89 Q 321.93 83.89 322 83.89 Q 322.06 83.89 322.06 83.89 Q 322.34 83.89 322.53 83.7 Q 322.73 83.51 322.74 83.23 Z M 322.77 77.42 H 322.74 Q 322.74 77.14 322.54 76.95 Q 322.34 76.75 322.06 76.75 Q 322.06 76.75 322 76.75 Q 321.94 76.75 321.94 76.75 L 321.93 76.65 H 322.77 Z M 335.23 76.65 V 84 H 333.96 V 76.65 Z M 338.03 83.59 338.2 84 H 335.2 V 83.59 Z M 337.62 80.18 V 80.58 H 335.2 V 80.18 Z M 338.11 76.65 V 77.06 H 335.2 V 76.65 Z M 338.75 82 338.23 84 H 336.27 L 336.65 83.59 Q 337.19 83.59 337.57 83.39 Q 337.96 83.2 338.22 82.84 Q 338.48 82.48 338.65 82 Z M 337.62 80.56 V 81.46 H 337.51 V 81.35 Q 337.51 81.02 337.3 80.8 Q 337.08 80.58 336.75 80.58 V 80.56 Z M 337.62 79.29 V 80.2 H 336.75 V 80.18 Q 337.08 80.17 337.3 79.94 Q 337.52 79.72 337.51 79.4 V 79.29 Z M 338.11 77.03 V 78.12 H 338.01 V 77.98 Q 338.01 77.57 337.76 77.32 Q 337.51 77.06 337.09 77.05 V 77.03 Z M 338.11 76.46 V 76.77 L 336.83 76.65 Q 337.06 76.65 337.32 76.62 Q 337.58 76.59 337.8 76.55 Q 338.02 76.5 338.11 76.46 Z M 333.99 83.23 V 84 H 333.15 V 83.89 Q 333.15 83.89 333.22 83.89 Q 333.28 83.89 333.28 83.89 Q 333.56 83.89 333.75 83.7 Q 333.95 83.51 333.96 83.23 Z M 333.99 77.42 H 333.96 Q 333.95 77.14 333.75 76.95 Q 333.56 76.75 333.28 76.75 Q 333.28 76.75 333.22 76.75 Q 333.15 76.75 333.15 76.75 L 333.15 76.65 H 333.99 Z M 345.54 84.19 342.14 76.71 H 343.69 L 346.04 82.51 Z M 345.54 84.19 345.49 83.09 348.2 76.68 H 348.92 L 346.11 82.91 Q 346.1 82.95 346.02 83.11 Q 345.95 83.27 345.86 83.48 Q 345.78 83.69 345.71 83.89 Q 345.65 84.08 345.64 84.19 Z M 347.89 77.41 Q 348.02 77.1 347.86 76.93 Q 347.69 76.75 347.49 76.75 H 347.4 V 76.65 H 349.6 V 76.75 Q 349.6 76.75 349.55 76.75 Q 349.51 76.75 349.51 76.75 Q 349.27 76.75 349.01 76.91 Q 348.75 77.06 348.59 77.42 Z M 343.98 77.41 342.46 77.42 Q 342.3 77.06 342.04 76.91 Q 341.78 76.75 341.53 76.75 Q 341.53 76.75 341.49 76.75 Q 341.45 76.75 341.45 76.75 V 76.65 H 344.47 V 76.75 H 344.37 Q 344.17 76.75 344.02 76.93 Q 343.87 77.1 343.98 77.41 Z M 361.67 84.15 361.5 83.78 Q 361.97 83.81 362.4 83.88 Q 362.83 83.94 363.26 84.05 Q 363.69 84.16 364.16 84.32 Q 364.62 84.48 365.16 84.69 Q 365.69 84.89 366.33 85.15 Q 367 85.42 367.69 85.54 Q 368.37 85.66 369.03 85.63 Q 369.68 85.6 370.26 85.39 Q 370.83 85.18 371.29 84.8 L 371.34 84.84 Q 371.3 85.24 371.01 85.62 Q 370.73 86 370.24 86.3 Q 369.75 86.59 369.08 86.72 Q 368.42 86.84 367.61 86.72 Q 366.8 86.61 365.87 86.16 Q 365.32 85.9 364.79 85.57 Q 364.26 85.25 363.73 84.95 Q 363.21 84.65 362.69 84.43 Q 362.18 84.21 361.67 84.15 Z M 361.75 76.5 Q 362.96 76.5 363.86 76.97 Q 364.76 77.44 365.25 78.3 Q 365.75 79.15 365.75 80.33 Q 365.75 81.49 365.25 82.35 Q 364.76 83.21 363.85 83.68 Q 362.95 84.15 361.75 84.15 Q 360.54 84.15 359.63 83.68 Q 358.73 83.21 358.24 82.35 Q 357.74 81.5 357.74 80.33 Q 357.74 79.16 358.24 78.3 Q 358.73 77.44 359.63 76.97 Q 360.54 76.5 361.75 76.5 Z M 361.75 83.75 Q 362.54 83.75 363.12 83.33 Q 363.7 82.9 364.02 82.14 Q 364.34 81.37 364.34 80.33 Q 364.34 79.28 364.02 78.51 Q 363.7 77.75 363.12 77.32 Q 362.54 76.9 361.75 76.9 Q 360.96 76.9 360.37 77.32 Q 359.79 77.75 359.47 78.51 Q 359.15 79.28 359.15 80.33 Q 359.15 81.37 359.47 82.14 Q 359.79 82.9 360.38 83.33 Q 360.96 83.75 361.75 83.75 Z M 371.34 76.65 V 81.27 Q 371.34 82.02 371.6 82.57 Q 371.86 83.13 372.33 83.43 Q 372.8 83.74 373.44 83.74 Q 374.1 83.74 374.59 83.45 Q 375.07 83.16 375.34 82.64 Q 375.61 82.12 375.61 81.41 V 76.65 H 376.27 V 81.36 Q 376.27 82.21 375.91 82.83 Q 375.56 83.46 374.89 83.8 Q 374.22 84.15 373.31 84.15 Q 372.27 84.15 371.54 83.81 Q 370.82 83.46 370.44 82.84 Q 370.06 82.22 370.06 81.37 V 76.65 Z M 370.09 76.65 V 77.28 H 370.06 Q 370.06 77.05 369.9 76.9 Q 369.74 76.75 369.5 76.75 Q 369.5 76.75 369.42 76.75 Q 369.34 76.75 369.34 76.75 V 76.65 Z M 372.06 76.65 V 76.75 Q 372.06 76.75 371.98 76.75 Q 371.9 76.75 371.9 76.75 Q 371.66 76.75 371.5 76.9 Q 371.34 77.05 371.34 77.28 H 371.32 V 76.65 Z M 375.64 76.65 V 77.28 H 375.61 Q 375.61 77.05 375.45 76.9 Q 375.28 76.75 375.05 76.75 Q 375.05 76.75 374.97 76.75 Q 374.88 76.75 374.88 76.75 V 76.65 Z M 377 76.65 V 76.75 Q 377 76.75 376.91 76.75 Q 376.83 76.75 376.83 76.75 Q 376.6 76.75 376.44 76.9 Q 376.27 77.05 376.27 77.28 H 376.25 V 76.65 Z M 384.59 76.5 Q 385.8 76.5 386.71 76.97 Q 387.61 77.44 388.11 78.3 Q 388.6 79.15 388.6 80.33 Q 388.6 81.49 388.11 82.35 Q 387.61 83.21 386.71 83.68 Q 385.8 84.15 384.59 84.15 Q 383.37 84.15 382.47 83.68 Q 381.57 83.21 381.07 82.35 Q 380.58 81.5 380.58 80.33 Q 380.58 79.16 381.07 78.3 Q 381.57 77.44 382.47 76.97 Q 383.37 76.5 384.59 76.5 Z M 384.59 83.75 Q 385.38 83.75 385.96 83.33 Q 386.54 82.9 386.86 82.14 Q 387.18 81.37 387.18 80.33 Q 387.18 79.28 386.86 78.51 Q 386.54 77.75 385.96 77.32 Q 385.38 76.9 384.59 76.9 Q 383.8 76.9 383.22 77.32 Q 382.64 77.75 382.32 78.51 Q 382 79.28 382 80.33 Q 382 81.37 382.32 82.14 Q 382.64 82.9 383.22 83.33 Q 383.8 83.75 384.59 83.75 Z M 395.73 76.68 V 84 H 394.45 V 76.68 Z M 398.35 76.64 V 77.04 H 391.84 V 76.64 Z M 398.35 77.01 V 78.11 L 398.24 78.1 V 77.97 Q 398.24 77.56 397.99 77.3 Q 397.73 77.05 397.32 77.04 V 77.01 Z M 398.35 76.45 V 76.75 L 397.07 76.64 Q 397.3 76.64 397.55 76.61 Q 397.81 76.58 398.03 76.53 Q 398.25 76.49 398.35 76.45 Z M 394.49 83.23 V 84 H 393.65 V 83.89 Q 393.65 83.89 393.71 83.89 Q 393.78 83.89 393.78 83.89 Q 394.06 83.89 394.25 83.7 Q 394.44 83.51 394.45 83.23 Z M 395.7 83.23 H 395.73 Q 395.74 83.51 395.94 83.7 Q 396.13 83.89 396.4 83.89 Q 396.4 83.89 396.47 83.89 Q 396.54 83.89 396.54 83.89 V 84 H 395.7 Z M 392.86 77.01 V 77.04 Q 392.45 77.05 392.2 77.3 Q 391.95 77.56 391.95 77.97 V 78.1 L 391.84 78.11 V 77.01 Z M 391.84 76.45 Q 391.95 76.49 392.16 76.53 Q 392.38 76.58 392.64 76.61 Q 392.9 76.64 393.12 76.64 L 391.84 76.75 Z M 403.69 76.65 V 84 H 402.41 V 76.65 Z M 406.48 83.59 406.65 84 H 403.66 V 83.59 Z M 406.07 80.18 V 80.58 H 403.66 V 80.18 Z M 406.57 76.65 V 77.06 H 403.66 V 76.65 Z M 407.21 82 406.68 84 H 404.73 L 405.1 83.59 Q 405.64 83.59 406.03 83.39 Q 406.41 83.2 406.67 82.84 Q 406.94 82.48 407.1 82 Z M 406.07 80.56 V 81.46 H 405.97 V 81.35 Q 405.97 81.02 405.75 80.8 Q 405.53 80.58 405.21 80.58 V 80.56 Z M 406.07 79.29 V 80.2 H 405.21 V 80.18 Q 405.53 80.17 405.75 79.94 Q 405.97 79.72 405.97 79.4 V 79.29 Z M 406.57 77.03 V 78.12 H 406.46 V 77.98 Q 406.46 77.57 406.21 77.32 Q 405.96 77.06 405.54 77.05 V 77.03 Z M 406.57 76.46 V 76.77 L 405.28 76.65 Q 405.52 76.65 405.77 76.62 Q 406.03 76.59 406.25 76.55 Q 406.47 76.5 406.57 76.46 Z M 402.44 83.23 V 84 H 401.6 V 83.89 Q 401.6 83.89 401.67 83.89 Q 401.74 83.89 401.74 83.89 Q 402.01 83.89 402.21 83.7 Q 402.4 83.51 402.41 83.23 Z M 402.44 77.42 H 402.41 Q 402.41 77.14 402.21 76.95 Q 402.01 76.75 401.74 76.75 Q 401.74 76.75 401.67 76.75 Q 401.61 76.75 401.61 76.75 L 401.6 76.65 H 402.44 Z M 410.77 82.96 Q 410.91 82.8 411.12 82.77 Q 411.34 82.75 411.54 82.85 Q 411.75 82.95 411.85 83.2 Q 412.01 83.56 411.97 83.91 Q 411.92 84.26 411.73 84.54 Q 411.55 84.83 411.25 84.98 Q 410.96 85.14 410.62 85.1 L 410.59 85 Q 410.85 84.9 410.97 84.72 Q 411.09 84.53 411.06 84.31 Q 411.04 84.09 410.87 83.9 Q 410.76 83.76 410.69 83.6 Q 410.63 83.44 410.64 83.27 Q 410.66 83.09 410.77 82.96 Z M 422.83 76.65 V 83.79 Q 422.83 84.32 422.63 84.76 Q 422.42 85.2 422.07 85.51 Q 421.72 85.82 421.27 85.98 Q 420.82 86.13 420.32 86.1 V 86.01 Q 420.73 85.84 421.01 85.49 Q 421.28 85.14 421.42 84.68 Q 421.55 84.23 421.55 83.76 V 76.65 Z M 421.58 77.42 H 421.55 Q 421.54 77.14 421.35 76.95 Q 421.15 76.75 420.88 76.75 Q 420.88 76.75 420.81 76.75 Q 420.74 76.75 420.74 76.75 V 76.65 H 421.58 Z M 422.8 77.42 V 76.65 H 423.64 V 76.75 Q 423.64 76.75 423.57 76.75 Q 423.5 76.75 423.5 76.75 Q 423.23 76.75 423.03 76.95 Q 422.84 77.14 422.83 77.42 Z M 429.08 76.65 V 81.27 Q 429.08 82.02 429.34 82.57 Q 429.6 83.13 430.07 83.43 Q 430.54 83.74 431.18 83.74 Q 431.85 83.74 432.33 83.45 Q 432.82 83.16 433.08 82.64 Q 433.35 82.12 433.35 81.41 V 76.65 H 434.02 V 81.36 Q 434.02 82.21 433.66 82.83 Q 433.3 83.46 432.63 83.8 Q 431.97 84.15 431.05 84.15 Q 430.02 84.15 429.29 83.81 Q 428.56 83.46 428.18 82.84 Q 427.8 82.22 427.8 81.37 V 76.65 Z M 427.84 76.65 V 77.28 H 427.8 Q 427.8 77.05 427.64 76.9 Q 427.48 76.75 427.25 76.75 Q 427.25 76.75 427.16 76.75 Q 427.08 76.75 427.08 76.75 V 76.65 Z M 429.81 76.65 V 76.75 Q 429.81 76.75 429.72 76.75 Q 429.64 76.75 429.64 76.75 Q 429.41 76.75 429.24 76.9 Q 429.08 77.05 429.08 77.28 H 429.06 V 76.65 Z M 433.38 76.65 V 77.28 H 433.35 Q 433.35 77.05 433.19 76.9 Q 433.03 76.75 432.8 76.75 Q 432.8 76.75 432.71 76.75 Q 432.63 76.75 432.63 76.75 V 76.65 Z M 434.74 76.65 V 76.75 Q 434.74 76.75 434.66 76.75 Q 434.57 76.75 434.57 76.75 Q 434.34 76.75 434.18 76.9 Q 434.02 77.05 434.02 77.28 H 433.99 V 76.65 Z M 440.55 76.5 Q 440.75 76.5 441.02 76.52 Q 441.29 76.55 441.57 76.58 Q 441.85 76.62 442.07 76.66 Q 442.29 76.69 442.38 76.73 L 442.29 78.07 H 442.19 Q 442.19 77.54 441.8 77.22 Q 441.42 76.9 440.81 76.9 Q 440.21 76.9 439.84 77.22 Q 439.48 77.53 439.46 77.98 Q 439.45 78.25 439.62 78.49 Q 439.79 78.74 440.09 78.95 L 442.12 80.46 Q 442.54 80.74 442.74 81.14 Q 442.94 81.55 442.92 82.04 Q 442.89 83.02 442.22 83.58 Q 441.56 84.15 440.42 84.15 Q 440.02 84.15 439.62 84.08 Q 439.21 84.01 438.88 83.87 Q 438.55 83.73 438.35 83.53 Q 438.28 83.32 438.29 83.02 Q 438.3 82.71 438.37 82.4 Q 438.44 82.08 438.56 81.85 H 438.65 Q 438.61 82.39 438.83 82.83 Q 439.04 83.27 439.47 83.51 Q 439.9 83.76 440.47 83.75 Q 441.12 83.73 441.52 83.38 Q 441.91 83.03 441.91 82.49 Q 441.91 82.18 441.74 81.92 Q 441.58 81.66 441.22 81.44 L 439.32 80.01 Q 438.84 79.7 438.63 79.25 Q 438.42 78.8 438.46 78.32 Q 438.49 77.81 438.74 77.4 Q 439 76.98 439.45 76.74 Q 439.91 76.5 440.55 76.5 Z M 442.38 76.61 442.37 76.83 H 441.28 V 76.61 Z M 450.11 76.68 V 84 H 448.83 V 76.68 Z M 452.72 76.64 V 77.04 H 446.21 V 76.64 Z M 452.72 77.01 V 78.11 L 452.61 78.1 V 77.97 Q 452.61 77.56 452.36 77.3 Q 452.11 77.05 451.7 77.04 V 77.01 Z M 452.72 76.45 V 76.75 L 451.44 76.64 Q 451.67 76.64 451.93 76.61 Q 452.18 76.58 452.4 76.53 Q 452.62 76.49 452.72 76.45 Z M 448.86 83.23 V 84 H 448.02 V 83.89 Q 448.02 83.89 448.09 83.89 Q 448.16 83.89 448.16 83.89 Q 448.43 83.89 448.62 83.7 Q 448.82 83.51 448.83 83.23 Z M 450.07 83.23 H 450.11 Q 450.12 83.51 450.31 83.7 Q 450.5 83.89 450.78 83.89 Q 450.78 83.89 450.85 83.89 Q 450.91 83.89 450.91 83.89 V 84 H 450.07 Z M 447.24 77.01 V 77.04 Q 446.82 77.05 446.57 77.3 Q 446.32 77.56 446.32 77.97 V 78.1 L 446.21 78.11 V 77.01 Z M 446.21 76.45 Q 446.32 76.49 446.53 76.53 Q 446.75 76.58 447.01 76.61 Q 447.27 76.64 447.49 76.64 L 446.21 76.75 Z M 463.29 76.65 V 84 H 462.01 V 76.65 Z M 465.67 80.18 V 80.58 H 463.25 V 80.18 Z M 466.16 76.65 V 77.06 H 463.25 V 76.65 Z M 465.67 80.56 V 81.46 H 465.56 V 81.35 Q 465.56 81.02 465.35 80.8 Q 465.13 80.58 464.8 80.58 V 80.56 Z M 465.67 79.29 V 80.2 H 464.8 V 80.18 Q 465.13 80.17 465.35 79.94 Q 465.57 79.72 465.56 79.4 V 79.29 Z M 466.16 77.03 V 78.04 H 466.06 V 77.92 Q 466.06 77.54 465.82 77.3 Q 465.59 77.06 465.2 77.06 V 77.03 Z M 466.16 76.46 V 76.77 L 464.88 76.65 Q 465.11 76.65 465.37 76.62 Q 465.63 76.59 465.85 76.55 Q 466.07 76.5 466.16 76.46 Z M 462.04 83.23 V 84 H 461.2 V 83.89 Q 461.2 83.89 461.27 83.89 Q 461.34 83.89 461.34 83.89 Q 461.61 83.89 461.8 83.7 Q 462 83.51 462.01 83.23 Z M 462.04 77.42 H 462.01 Q 462 77.14 461.81 76.95 Q 461.61 76.75 461.34 76.75 Q 461.34 76.75 461.27 76.75 Q 461.21 76.75 461.21 76.75 L 461.2 76.65 H 462.04 Z M 463.25 83.23 H 463.29 Q 463.3 83.51 463.49 83.7 Q 463.68 83.89 463.96 83.89 Q 463.96 83.89 464.02 83.89 Q 464.08 83.89 464.09 83.89 V 84 H 463.25 Z M 473.95 76.5 Q 475.17 76.5 476.07 76.97 Q 476.97 77.44 477.47 78.3 Q 477.97 79.15 477.97 80.33 Q 477.97 81.49 477.47 82.35 Q 476.97 83.21 476.07 83.68 Q 475.17 84.15 473.95 84.15 Q 472.74 84.15 471.84 83.68 Q 470.93 83.21 470.44 82.35 Q 469.94 81.5 469.94 80.33 Q 469.94 79.16 470.44 78.3 Q 470.93 77.44 471.84 76.97 Q 472.74 76.5 473.95 76.5 Z M 473.95 83.75 Q 474.74 83.75 475.33 83.33 Q 475.91 82.9 476.23 82.14 Q 476.55 81.37 476.55 80.33 Q 476.55 79.28 476.23 78.51 Q 475.91 77.75 475.33 77.32 Q 474.74 76.9 473.95 76.9 Q 473.16 76.9 472.58 77.32 Q 472 77.75 471.68 78.51 Q 471.36 79.28 471.36 80.33 Q 471.36 81.37 471.68 82.14 Q 472 82.9 472.58 83.33 Q 473.16 83.75 473.95 83.75 Z M 483.52 76.65 H 484.91 Q 485.38 76.65 485.81 76.77 Q 486.24 76.88 486.56 77.12 Q 486.88 77.36 487.07 77.73 Q 487.26 78.11 487.26 78.63 Q 487.26 79.09 487.06 79.54 Q 486.86 79.98 486.47 80.29 Q 486.08 80.59 485.51 80.63 Q 485.8 80.72 486.05 80.98 Q 486.31 81.24 486.48 81.49 Q 486.49 81.5 486.61 81.69 Q 486.73 81.87 486.91 82.13 Q 487.09 82.39 487.28 82.65 Q 487.47 82.92 487.62 83.1 Q 487.85 83.37 488.04 83.54 Q 488.24 83.71 488.46 83.8 Q 488.68 83.89 488.97 83.89 V 84 H 488.09 Q 487.55 84 487.12 83.88 Q 486.7 83.77 486.38 83.54 Q 486.07 83.31 485.83 82.97 Q 485.77 82.86 485.65 82.67 Q 485.54 82.47 485.4 82.24 Q 485.27 82 485.14 81.77 Q 485.01 81.54 484.92 81.36 Q 484.82 81.19 484.79 81.11 Q 484.63 80.8 484.43 80.62 Q 484.23 80.43 484 80.41 V 80.3 Q 484.02 80.3 484.13 80.31 Q 484.25 80.31 484.4 80.3 Q 484.68 80.3 484.97 80.2 Q 485.25 80.1 485.49 79.85 Q 485.72 79.6 485.83 79.13 Q 485.85 79.03 485.87 78.88 Q 485.88 78.74 485.87 78.58 Q 485.85 77.84 485.5 77.47 Q 485.15 77.09 484.61 77.07 Q 484.42 77.06 484.2 77.06 Q 483.98 77.06 483.82 77.06 Q 483.65 77.06 483.62 77.06 Q 483.62 77.06 483.59 76.96 Q 483.57 76.85 483.54 76.75 Q 483.52 76.65 483.52 76.65 Z M 483.65 76.65 V 84 H 482.37 V 76.65 Z M 482.4 83.23 V 84 H 481.56 V 83.89 Q 481.57 83.89 481.63 83.89 Q 481.69 83.89 481.7 83.89 Q 481.97 83.89 482.16 83.7 Q 482.36 83.51 482.37 83.23 Z M 482.4 77.42 H 482.37 Q 482.36 77.14 482.16 76.95 Q 481.97 76.75 481.7 76.75 Q 481.69 76.75 481.63 76.75 Q 481.57 76.75 481.56 76.75 V 76.65 H 482.4 Z M 483.62 83.23 H 483.65 Q 483.65 83.51 483.85 83.7 Q 484.05 83.89 484.32 83.89 Q 484.33 83.89 484.39 83.89 Q 484.45 83.89 484.45 83.89 V 84 H 483.62 Z M 498.48 76.66 500.6 80.54 499.46 80.76 496.98 76.66 Z M 500.69 80.62 V 84 H 499.41 V 80.62 Z M 502.44 76.66 H 503.2 L 500.59 80.83 L 500.11 80.72 Z M 502.01 77.41 Q 502.1 77.26 502.05 77.11 Q 502.01 76.95 501.9 76.85 Q 501.78 76.75 501.64 76.75 Q 501.64 76.75 501.58 76.75 Q 501.51 76.75 501.51 76.75 V 76.65 H 503.96 V 76.75 H 503.81 Q 503.49 76.75 503.2 76.94 Q 502.91 77.13 502.75 77.37 Z M 498.89 77.41 497.41 77.37 Q 497.26 77.13 496.98 76.94 Q 496.69 76.75 496.36 76.75 H 496.21 V 76.65 H 499.39 V 76.75 Q 499.39 76.75 499.32 76.75 Q 499.26 76.75 499.26 76.75 Q 499.02 76.75 498.9 76.97 Q 498.78 77.19 498.89 77.41 Z M 499.43 83.23 V 84 H 498.6 V 83.89 Q 498.6 83.89 498.66 83.89 Q 498.73 83.89 498.74 83.89 Q 499.01 83.89 499.2 83.7 Q 499.4 83.51 499.41 83.23 Z M 500.66 83.23 H 500.69 Q 500.69 83.51 500.89 83.7 Q 501.09 83.89 501.36 83.89 Q 501.36 83.89 501.42 83.89 Q 501.48 83.89 501.48 83.89 V 84 H 500.66 Z M 510.89 76.5 Q 512.11 76.5 513.01 76.97 Q 513.92 77.44 514.41 78.3 Q 514.91 79.15 514.91 80.33 Q 514.91 81.49 514.41 82.35 Q 513.92 83.21 513.01 83.68 Q 512.11 84.15 510.89 84.15 Q 509.68 84.15 508.78 83.68 Q 507.88 83.21 507.38 82.35 Q 506.89 81.5 506.89 80.33 Q 506.89 79.16 507.38 78.3 Q 507.88 77.44 508.78 76.97 Q 509.68 76.5 510.89 76.5 Z M 510.89 83.75 Q 511.69 83.75 512.27 83.33 Q 512.85 82.9 513.17 82.14 Q 513.49 81.37 513.49 80.33 Q 513.49 79.28 513.17 78.51 Q 512.85 77.75 512.27 77.32 Q 511.69 76.9 510.89 76.9 Q 510.11 76.9 509.53 77.32 Q 508.95 77.75 508.63 78.51 Q 508.31 79.28 508.31 80.33 Q 508.31 81.37 508.63 82.14 Q 508.95 82.9 509.53 83.33 Q 510.11 83.75 510.89 83.75 Z M 520.42 76.65 V 81.27 Q 520.42 82.02 520.68 82.57 Q 520.94 83.13 521.41 83.43 Q 521.89 83.74 522.52 83.74 Q 523.19 83.74 523.67 83.45 Q 524.16 83.16 524.43 82.64 Q 524.69 82.12 524.69 81.41 V 76.65 H 525.36 V 81.36 Q 525.36 82.21 525 82.83 Q 524.64 83.46 523.97 83.8 Q 523.31 84.15 522.39 84.15 Q 521.36 84.15 520.63 83.81 Q 519.9 83.46 519.52 82.84 Q 519.15 82.22 519.15 81.37 V 76.65 Z M 519.18 76.65 V 77.28 H 519.15 Q 519.15 77.05 518.98 76.9 Q 518.82 76.75 518.59 76.75 Q 518.59 76.75 518.51 76.75 Q 518.42 76.75 518.42 76.75 V 76.65 Z M 521.15 76.65 V 76.75 Q 521.15 76.75 521.06 76.75 Q 520.98 76.75 520.98 76.75 Q 520.75 76.75 520.59 76.9 Q 520.42 77.05 520.42 77.28 H 520.4 V 76.65 Z M 524.73 76.65 V 77.28 H 524.69 Q 524.69 77.05 524.53 76.9 Q 524.37 76.75 524.14 76.75 Q 524.14 76.75 524.05 76.75 Q 523.97 76.75 523.97 76.75 V 76.65 Z M 526.08 76.65 V 76.75 Q 526.08 76.75 526 76.75 Q 525.91 76.75 525.91 76.75 Q 525.68 76.75 525.52 76.9 Q 525.36 77.05 525.36 77.28 H 525.34 V 76.65 Z"/><g transform="translate(195.29 40.29)"><path d="M0 -3.81 Q0.69 -0.69 3.81 0 Q0.69 0.69 0 3.81 Q-0.69 0.69 -3.81 0 Q-0.69 -0.69 0 -3.81 Z" fill="#ff8cc6"><animateTransform attributeName="transform" type="scale" values="0;1;0" dur="2.95s" begin="-0.31s" repeatCount="indefinite"/></path></g><g transform="translate(550.75 45.01)"><path d="M0 -3.74 Q0.67 -0.67 3.74 0 Q0.67 0.67 0 3.74 Q-0.67 0.67 -3.74 0 Q-0.67 -0.67 0 -3.74 Z" fill="#ff8cc6"><animateTransform attributeName="transform" type="scale" values="0;1;0" dur="4s" begin="-2.97s" repeatCount="indefinite"/></path></g><g transform="translate(170.98 43.26)"><path d="M0 -5.45 Q0.98 -0.98 5.45 0 Q0.98 0.98 0 5.45 Q-0.98 0.98 -5.45 0 Q-0.98 -0.98 0 -5.45 Z" fill="#ff8cc6"><animateTransform attributeName="transform" type="scale" values="0;1;0" dur="3.6s" begin="-0.11s" repeatCount="indefinite"/></path></g><g transform="translate(510.02 40.29)"><path d="M0 -5.24 Q0.94 -0.94 5.24 0 Q0.94 0.94 0 5.24 Q-0.94 0.94 -5.24 0 Q-0.94 -0.94 0 -5.24 Z" fill="#ff8cc6"><animateTransform attributeName="transform" type="scale" values="0;1;0" dur="3.43s" begin="-1.3s" repeatCount="indefinite"/></path></g><g transform="translate(255.3 33.03)"><path d="M0 -4.88 Q0.88 -0.88 4.88 0 Q0.88 0.88 0 4.88 Q-0.88 0.88 -4.88 0 Q-0.88 -0.88 0 -4.88 Z" fill="#ff8cc6"><animateTransform attributeName="transform" type="scale" values="0;1;0" dur="3.6s" begin="-1.34s" repeatCount="indefinite"/></path></g><g transform="translate(514.65 53.6)"><path d="M0 -4.21 Q0.76 -0.76 4.21 0 Q0.76 0.76 0 4.21 Q-0.76 0.76 -4.21 0 Q-0.76 -0.76 0 -4.21 Z" fill="#ff8cc6"><animateTransform attributeName="transform" type="scale" values="0;1;0" dur="2.53s" begin="-2.44s" repeatCount="indefinite"/></path></g></g></svg>